<svg xmlns="http://www.w3.org/2000/svg"  viewBox="0 0 50 50" width="50px" height="50px"><path d="M 25 1.9199219 C 12.265113 1.9199219 1.9199219 12.265113 1.9199219 25 C 1.9199219 37.734887 12.265113 48.080078 25 48.080078 C 37.734887 48.080078 48.080078 37.734887 48.080078 25 C 48.080078 12.265113 37.734887 1.9199219 25 1.9199219 z M 25 3.9199219 C 36.654007 3.9199219 46.080078 13.345993 46.080078 25 C 46.080078 36.654007 36.654007 46.080078 25 46.080078 C 13.345993 46.080078 3.9199219 36.654007 3.9199219 25 C 3.9199219 24.635812 3.929075 24.27368 3.9472656 23.914062 C 4.511175 12.765948 13.710181 3.9199219 25 3.9199219 z M 25 6 C 14.518434 6 6 14.518434 6 25 C 6 35.481566 14.518434 44 25 44 C 35.481566 44 44 35.481566 44 25 C 44 14.518434 35.481566 6 25 6 z M 25 8 C 29.327588 8 33.261303 9.6240278 36.259766 12.279297 L 21.486328 21.142578 A 1.0001 1.0001 0 0 0 21.142578 21.486328 L 12.279297 36.259766 C 9.6240278 33.261303 8 29.327588 8 25 C 8 15.599315 15.599315 8 25 8 z M 24.984375 8.9863281 A 1.0001 1.0001 0 0 0 24 10 L 24 11 A 1.0001 1.0001 0 1 0 26 11 L 26 10 A 1.0001 1.0001 0 0 0 24.984375 8.9863281 z M 30.724609 10.128906 A 1.0001 1.0001 0 0 0 29.816406 10.759766 L 29.433594 11.683594 A 1.0001 1.0001 0 1 0 31.28125 12.449219 L 31.664062 11.525391 A 1.0001 1.0001 0 0 0 30.724609 10.128906 z M 19.234375 10.132812 A 1.0001 1.0001 0 0 0 18.326172 11.529297 L 18.708984 12.453125 A 1.0003765 1.0003765 0 1 0 20.556641 11.685547 L 20.171875 10.761719 A 1.0001 1.0001 0 0 0 19.234375 10.132812 z M 14.373047 13.392578 A 1.0001 1.0001 0 0 0 13.677734 15.111328 L 14.386719 15.816406 A 1.0001 1.0001 0 1 0 15.798828 14.400391 L 15.089844 13.695312 A 1.0001 1.0001 0 0 0 14.373047 13.392578 z M 37.720703 13.740234 C 40.375972 16.738697 42 20.672412 42 25 C 42 34.400685 34.400685 42 25 42 C 20.672412 42 16.738697 40.375972 13.740234 37.720703 L 28.513672 28.857422 A 1.0001 1.0001 0 0 0 28.857422 28.513672 L 37.720703 13.740234 z M 34.085938 15.914062 L 27.271484 27.271484 L 15.914062 34.085938 L 22.728516 22.728516 L 34.085938 15.914062 z M 38.816406 18.214844 A 1.0001 1.0001 0 0 0 38.457031 18.296875 L 37.533203 18.681641 A 1.0002261 1.0002261 0 1 0 38.304688 20.527344 L 39.226562 20.142578 A 1.0001 1.0001 0 0 0 38.816406 18.214844 z M 11.134766 18.255859 A 1.0001 1.0001 0 0 0 10.757812 20.185547 L 11.681641 20.568359 A 1.0001 1.0001 0 1 0 12.447266 18.720703 L 11.523438 18.337891 A 1.0001 1.0001 0 0 0 11.134766 18.255859 z M 25 23 A 2 2 0 0 0 23 25 A 2 2 0 0 0 25 27 A 2 2 0 0 0 27 25 A 2 2 0 0 0 25 23 z M 10 24 A 1.0001 1.0001 0 1 0 10 26 L 11 26 A 1.0001 1.0001 0 1 0 11 24 L 10 24 z M 39 24 A 1.0001 1.0001 0 1 0 39 26 L 40 26 A 1.0001 1.0001 0 1 0 40 24 L 39 24 z M 37.929688 29.349609 A 1.0001 1.0001 0 0 0 37.552734 31.279297 L 38.476562 31.662109 A 1.0001 1.0001 0 1 0 39.242188 29.814453 L 38.318359 29.431641 A 1.0001 1.0001 0 0 0 37.929688 29.349609 z M 12.054688 29.390625 A 1.0001 1.0001 0 0 0 11.695312 29.472656 L 10.773438 29.857422 A 1.0001 1.0001 0 1 0 11.542969 31.703125 L 12.466797 31.318359 A 1.0001 1.0001 0 0 0 12.054688 29.390625 z M 34.896484 33.880859 A 1.0001 1.0001 0 0 0 34.201172 35.599609 L 34.910156 36.304688 A 1.0001 1.0001 0 1 0 36.322266 34.888672 L 35.613281 34.183594 A 1.0001 1.0001 0 0 0 34.896484 33.880859 z M 30.353516 36.916016 A 1.0001 1.0001 0 0 0 29.443359 38.314453 L 29.828125 39.238281 A 1.0001 1.0001 0 1 0 31.673828 38.470703 L 31.291016 37.546875 A 1.0001 1.0001 0 0 0 30.353516 36.916016 z M 19.625 36.921875 A 1.0001 1.0001 0 0 0 18.71875 37.550781 L 18.335938 38.474609 A 1.0001 1.0001 0 1 0 20.183594 39.240234 L 20.566406 38.316406 A 1.0001 1.0001 0 0 0 19.625 36.921875 z M 24.984375 37.986328 A 1.0001 1.0001 0 0 0 24 39 L 24 40 A 1.0001 1.0001 0 1 0 26 40 L 26 39 A 1.0001 1.0001 0 0 0 24.984375 37.986328 z"/></svg>