<svg xmlns="http://www.w3.org/2000/svg"  viewBox="0 0 64 64" width="64px" height="64px"><radialGradient id="e6ZzIL4VMaFPVDd9bqCbla" cx="32" cy="-5223.5" r="30.775" gradientTransform="matrix(1 0 0 -1 0 -5192)" gradientUnits="userSpaceOnUse"><stop offset="0" stop-color="#afeeff"/><stop offset=".193" stop-color="#bbf1ff"/><stop offset=".703" stop-color="#d7f8ff"/><stop offset="1" stop-color="#e1faff"/></radialGradient><path fill="url(#e6ZzIL4VMaFPVDd9bqCbla)" d="M60.106,20H60.5c2.168,0,3.892-1.998,3.422-4.243C63.579,14.122,62.054,13,60.384,13h-3.673 c-1.608,0-2.525-0.681-2.684-1.665C53.824,10.082,54.785,9,56,9h0.384c1.67,0,3.195-1.122,3.538-2.757 C60.392,3.998,58.668,2,56.5,2H34.006H32.5H8.614C6.944,2,5.42,3.122,5.078,4.757C4.608,7.002,6.332,9,8.5,9h1.394 c0.996,0,1.919,0.681,2.078,1.665C12.176,11.918,11.215,13,10,13H3.616c-1.67,0-3.195,1.122-3.538,2.757 C-0.392,18.002,1.332,20,3.5,20H4c3.314,0,6,2.686,6,6l0,0c0,3.314-2.686,6-6,6H3.616c-1.67,0-3.195,1.122-3.538,2.757 C-0.392,37.002,1.332,39,3.5,39h0.417c0.996,0,1.919,0.681,2.078,1.665C6.199,41.918,5.238,43,4.023,43H3.5 c-2.168,0-3.892,1.998-3.422,4.243C0.421,48.878,1.946,50,3.616,50H7.4c1.494,0,2.413,0.681,2.573,1.665 C10.176,52.918,9.215,54,8,54H6.616c-1.67,0-3.195,1.122-3.538,2.757C2.608,59.002,4.332,61,6.5,61h24.494H32.5h25.886 c1.67,0,3.195-1.122,3.537-2.757C62.392,55.998,60.668,54,58.5,54h-3.394c-0.996,0-1.919-0.681-2.078-1.665 C52.824,51.082,53.785,50,55,50h5.384c1.67,0,3.195-1.122,3.538-2.757C64.392,44.998,62.668,43,60.5,43H60c-3.314,0-6-2.686-6-6 l0,0c0-3.314,2.686-6,6-6h0.384c1.67,0,3.195-1.122,3.538-2.757C64.392,25.998,62.668,24,60.5,24H60 c-1.215,0-2.176-1.082-1.973-2.335C58.187,20.681,59.11,20,60.106,20z"/><linearGradient id="e6ZzIL4VMaFPVDd9bqCblb" x1="32" x2="32" y1="57" y2="7" gradientUnits="userSpaceOnUse"><stop offset="0" stop-color="#155cdc"/><stop offset=".278" stop-color="#1e7fe3"/><stop offset=".569" stop-color="#279ae9"/><stop offset=".82" stop-color="#2eaded"/><stop offset="1" stop-color="#2fb3ee"/></linearGradient><circle cx="32" cy="32" r="25" fill="url(#e6ZzIL4VMaFPVDd9bqCblb)"/><radialGradient id="e6ZzIL4VMaFPVDd9bqCblc" cx="32" cy="32" r="21" gradientUnits="userSpaceOnUse"><stop offset="0" stop-color="#f7e9c2"/><stop offset=".219" stop-color="#fbeecc"/><stop offset=".644" stop-color="#fff3db"/><stop offset="1" stop-color="#fff5e0"/></radialGradient><circle cx="32" cy="32" r="21" fill="url(#e6ZzIL4VMaFPVDd9bqCblc)"/><linearGradient id="e6ZzIL4VMaFPVDd9bqCbld" x1="32" x2="32" y1="49" y2="15" gradientUnits="userSpaceOnUse"><stop offset="0" stop-color="#155cdc"/><stop offset=".278" stop-color="#1e7fe3"/><stop offset=".569" stop-color="#279ae9"/><stop offset=".82" stop-color="#2eaded"/><stop offset="1" stop-color="#2fb3ee"/></linearGradient><circle cx="32" cy="32" r="17" fill="url(#e6ZzIL4VMaFPVDd9bqCbld)"/><radialGradient id="e6ZzIL4VMaFPVDd9bqCble" cx="32" cy="32" r="13" gradientUnits="userSpaceOnUse"><stop offset="0" stop-color="#f7e9c2"/><stop offset=".219" stop-color="#fbeecc"/><stop offset=".644" stop-color="#fff3db"/><stop offset="1" stop-color="#fff5e0"/></radialGradient><circle cx="32" cy="32" r="13" fill="url(#e6ZzIL4VMaFPVDd9bqCble)"/><linearGradient id="e6ZzIL4VMaFPVDd9bqCblf" x1="23" x2="41" y1="32" y2="32" gradientUnits="userSpaceOnUse"><stop offset="0" stop-color="#155cdc"/><stop offset=".278" stop-color="#1e7fe3"/><stop offset=".569" stop-color="#279ae9"/><stop offset=".82" stop-color="#2eaded"/><stop offset="1" stop-color="#2fb3ee"/></linearGradient><circle cx="32" cy="32" r="9" fill="url(#e6ZzIL4VMaFPVDd9bqCblf)"/><linearGradient id="e6ZzIL4VMaFPVDd9bqCblg" x1="32" x2="32" y1="41" y2="23" gradientUnits="userSpaceOnUse"><stop offset="0" stop-color="#155cdc"/><stop offset=".278" stop-color="#1e7fe3"/><stop offset=".569" stop-color="#279ae9"/><stop offset=".82" stop-color="#2eaded"/><stop offset="1" stop-color="#2fb3ee"/></linearGradient><circle cx="32" cy="32" r="9" fill="url(#e6ZzIL4VMaFPVDd9bqCblg)"/><radialGradient id="e6ZzIL4VMaFPVDd9bqCblh" cx="-1926" cy="192" r="5" gradientTransform="rotate(180 -947 112)" gradientUnits="userSpaceOnUse"><stop offset="0" stop-color="#f7e9c2"/><stop offset=".219" stop-color="#fbeecc"/><stop offset=".644" stop-color="#fff3db"/><stop offset="1" stop-color="#fff5e0"/></radialGradient><circle cx="32" cy="32" r="5" fill="url(#e6ZzIL4VMaFPVDd9bqCblh)"/><linearGradient id="e6ZzIL4VMaFPVDd9bqCbli" x1="19.5" x2="19.5" y1="57" y2="7" gradientUnits="userSpaceOnUse"><stop offset="0" stop-color="#155cdc"/><stop offset=".278" stop-color="#1e7fe3"/><stop offset=".569" stop-color="#279ae9"/><stop offset=".82" stop-color="#2eaded"/><stop offset="1" stop-color="#2fb3ee"/></linearGradient><path fill="url(#e6ZzIL4VMaFPVDd9bqCbli)" d="M32,7v50C18.19,57,7,45.81,7,32 S18.19,7,32,7z"/></svg>